<svg xmlns="http://www.w3.org/2000/svg" width="600" height="160" viewBox="0 0 600 160">
  <defs>
    <linearGradient id="grad1" x1="0%" y1="0%" x2="100%" y2="100%">
      <stop offset="0%" style="stop-color:#0f2027"/>
      <stop offset="50%" style="stop-color:#203a43"/>
      <stop offset="100%" style="stop-color:#2c5364"/>
    </linearGradient>
    <linearGradient id="glow" x1="0%" y1="0%" x2="100%" y2="0%">
      <stop offset="0%" style="stop-color:#2B616D;stop-opacity:0"/>
      <stop offset="50%" style="stop-color:#2B8DA0;stop-opacity:0.4"/>
      <stop offset="100%" style="stop-color:#2B616D;stop-opacity:0"/>
    </linearGradient>
  </defs>
  <rect width="600" height="160" fill="url(#grad1)"/>
  <rect y="80" width="600" height="2" fill="url(#glow)"/>
  <!-- Grid lines -->
  <line x1="0" y1="40" x2="600" y2="40" stroke="#2B8DA0" stroke-width="0.3" stroke-opacity="0.2"/>
  <line x1="0" y1="80" x2="600" y2="80" stroke="#2B8DA0" stroke-width="0.3" stroke-opacity="0.2"/>
  <line x1="0" y1="120" x2="600" y2="120" stroke="#2B8DA0" stroke-width="0.3" stroke-opacity="0.2"/>
  <line x1="150" y1="0" x2="150" y2="160" stroke="#2B8DA0" stroke-width="0.3" stroke-opacity="0.2"/>
  <line x1="300" y1="0" x2="300" y2="160" stroke="#2B8DA0" stroke-width="0.3" stroke-opacity="0.2"/>
  <line x1="450" y1="0" x2="450" y2="160" stroke="#2B8DA0" stroke-width="0.3" stroke-opacity="0.2"/>
  <!-- Icon area -->
  <rect x="24" y="28" width="44" height="44" rx="10" fill="#2B616D" fill-opacity="0.6"/>
  <text x="46" y="57" font-family="monospace" font-size="22" fill="#7DD3D8" text-anchor="middle">$</text>
  <!-- Title -->
  <text x="84" y="46" font-family="'Segoe UI', Arial, sans-serif" font-size="18" font-weight="700" fill="#E2F4F6">Accounting Suite</text>
  <text x="84" y="64" font-family="'Segoe UI', Arial, sans-serif" font-size="11" fill="#7DD3D8" letter-spacing="0.5">FULL-STACK APPLICATION</text>
  <!-- Tech badges -->
  <rect x="24" y="100" width="64" height="22" rx="11" fill="#1a3a42"/>
  <text x="56" y="115" font-family="'Segoe UI', Arial, sans-serif" font-size="10" fill="#7DD3D8" text-anchor="middle">NestJS</text>
  <rect x="96" y="100" width="64" height="22" rx="11" fill="#1a3a42"/>
  <text x="128" y="115" font-family="'Segoe UI', Arial, sans-serif" font-size="10" fill="#7DD3D8" text-anchor="middle">Next.js 15</text>
  <rect x="168" y="100" width="78" height="22" rx="11" fill="#1a3a42"/>
  <text x="207" y="115" font-family="'Segoe UI', Arial, sans-serif" font-size="10" fill="#7DD3D8" text-anchor="middle">PostgreSQL</text>
  <rect x="254" y="100" width="56" height="22" rx="11" fill="#1a3a42"/>
  <text x="282" y="115" font-family="'Segoe UI', Arial, sans-serif" font-size="10" fill="#7DD3D8" text-anchor="middle">Prisma</text>
  <rect x="318" y="100" width="56" height="22" rx="11" fill="#1a3a42"/>
  <text x="346" y="115" font-family="'Segoe UI', Arial, sans-serif" font-size="10" fill="#7DD3D8" text-anchor="middle">Redux</text>
  <!-- Decorative dots -->
  <circle cx="520" cy="40" r="40" fill="#2B8DA0" fill-opacity="0.06"/>
  <circle cx="560" cy="130" r="30" fill="#2B8DA0" fill-opacity="0.06"/>
</svg>
