<svg xmlns="http://www.w3.org/2000/svg" width="600" height="160" viewBox="0 0 600 160">
  <defs>
    <linearGradient id="grad2" x1="0%" y1="0%" x2="100%" y2="100%">
      <stop offset="0%" style="stop-color:#1a0533"/>
      <stop offset="50%" style="stop-color:#2d1b69"/>
      <stop offset="100%" style="stop-color:#11047a"/>
    </linearGradient>
    <linearGradient id="glow2" x1="0%" y1="0%" x2="100%" y2="0%">
      <stop offset="0%" style="stop-color:#7c3aed;stop-opacity:0"/>
      <stop offset="50%" style="stop-color:#a78bfa;stop-opacity:0.4"/>
      <stop offset="100%" style="stop-color:#7c3aed;stop-opacity:0"/>
    </linearGradient>
  </defs>
  <rect width="600" height="160" fill="url(#grad2)"/>
  <rect y="80" width="600" height="2" fill="url(#glow2)"/>
  <!-- Grid lines -->
  <line x1="0" y1="40" x2="600" y2="40" stroke="#7c3aed" stroke-width="0.3" stroke-opacity="0.2"/>
  <line x1="0" y1="80" x2="600" y2="80" stroke="#7c3aed" stroke-width="0.3" stroke-opacity="0.2"/>
  <line x1="0" y1="120" x2="600" y2="120" stroke="#7c3aed" stroke-width="0.3" stroke-opacity="0.2"/>
  <line x1="150" y1="0" x2="150" y2="160" stroke="#7c3aed" stroke-width="0.3" stroke-opacity="0.2"/>
  <line x1="300" y1="0" x2="300" y2="160" stroke="#7c3aed" stroke-width="0.3" stroke-opacity="0.2"/>
  <line x1="450" y1="0" x2="450" y2="160" stroke="#7c3aed" stroke-width="0.3" stroke-opacity="0.2"/>
  <!-- Icon area -->
  <rect x="24" y="28" width="44" height="44" rx="10" fill="#4c1d95" fill-opacity="0.8"/>
  <text x="46" y="57" font-family="'Segoe UI', Arial, sans-serif" font-size="22" fill="#c4b5fd" text-anchor="middle">★</text>
  <!-- Title -->
  <text x="84" y="46" font-family="'Segoe UI', Arial, sans-serif" font-size="22" font-weight="700" fill="#EDE9FE">Curio</text>
  <text x="84" y="64" font-family="'Segoe UI', Arial, sans-serif" font-size="11" fill="#a78bfa" letter-spacing="0.5">GAMIFIED LEARNING PLATFORM</text>
  <!-- Tech badges -->
  <rect x="24" y="100" width="70" height="22" rx="11" fill="#2d1b69"/>
  <text x="59" y="115" font-family="'Segoe UI', Arial, sans-serif" font-size="10" fill="#a78bfa" text-anchor="middle">Next.js 16</text>
  <rect x="102" y="100" width="56" height="22" rx="11" fill="#2d1b69"/>
  <text x="130" y="115" font-family="'Segoe UI', Arial, sans-serif" font-size="10" fill="#a78bfa" text-anchor="middle">Zustand</text>
  <rect x="166" y="100" width="50" height="22" rx="11" fill="#2d1b69"/>
  <text x="191" y="115" font-family="'Segoe UI', Arial, sans-serif" font-size="10" fill="#a78bfa" text-anchor="middle">Prisma</text>
  <rect x="224" y="100" width="72" height="22" rx="11" fill="#2d1b69"/>
  <text x="260" y="115" font-family="'Segoe UI', Arial, sans-serif" font-size="10" fill="#a78bfa" text-anchor="middle">PostgreSQL</text>
  <rect x="304" y="100" width="70" height="22" rx="11" fill="#2d1b69"/>
  <text x="339" y="115" font-family="'Segoe UI', Arial, sans-serif" font-size="10" fill="#a78bfa" text-anchor="middle">TypeScript</text>
  <!-- Decorative -->
  <circle cx="520" cy="40" r="50" fill="#7c3aed" fill-opacity="0.07"/>
  <circle cx="560" cy="130" r="35" fill="#a78bfa" fill-opacity="0.07"/>
  <!-- Stars decoration -->
  <text x="490" y="55" font-family="'Segoe UI', Arial, sans-serif" font-size="14" fill="#c4b5fd" fill-opacity="0.3">✦</text>
  <text x="540" y="80" font-family="'Segoe UI', Arial, sans-serif" font-size="9" fill="#c4b5fd" fill-opacity="0.3">✦</text>
  <text x="510" y="100" font-family="'Segoe UI', Arial, sans-serif" font-size="11" fill="#c4b5fd" fill-opacity="0.3">✦</text>
</svg>
