<svg xmlns="http://www.w3.org/2000/svg" width="600" height="450" viewBox="0 0 600 450">
  <defs>
    <linearGradient id="bg3" x1="0%" y1="0%" x2="0%" y2="100%">
      <stop offset="0%" stop-color="#0E1014"/>
      <stop offset="100%" stop-color="#15171C"/>
    </linearGradient>
  </defs>

  <rect width="600" height="450" fill="url(#bg3)"/>

  <line x1="0" y1="56" x2="600" y2="56" stroke="#23262C"/>
  <text x="24" y="36" font-family="ui-monospace, monospace" font-size="11" fill="#8A8B90" letter-spacing="2.2">// p3 · nexfit</text>
  <text x="576" y="36" font-family="ui-monospace, monospace" font-size="11" fill="#FF5C2E" letter-spacing="2.2" text-anchor="end">BETA</text>

  <!-- Progress motif: client progress trending up, latest point in accent -->
  <line x1="258" y1="246" x2="356" y2="246" stroke="#E6E6E6" stroke-width="1.5" opacity="0.4"/>
  <polyline points="258,238 282,226 306,214 330,196 356,178" fill="none" stroke="#E6E6E6" stroke-width="2" opacity="0.85" stroke-linecap="round" stroke-linejoin="round"/>
  <circle cx="258" cy="238" r="3" fill="#E6E6E6" opacity="0.6"/>
  <circle cx="282" cy="226" r="3" fill="#E6E6E6" opacity="0.6"/>
  <circle cx="306" cy="214" r="3" fill="#E6E6E6" opacity="0.6"/>
  <circle cx="330" cy="196" r="3" fill="#E6E6E6" opacity="0.6"/>
  <line x1="356" y1="246" x2="356" y2="178" stroke="#FF5C2E" stroke-width="1.5" opacity="0.5"/>
  <circle cx="356" cy="178" r="5.5" fill="#FF5C2E"/>

  <text x="300" y="295" font-family="Georgia, 'Times New Roman', serif" font-style="italic" font-size="48" fill="#E6E6E6" text-anchor="middle">Nexfit</text>
  <text x="300" y="328" font-family="ui-monospace, monospace" font-size="11" fill="#8A8B90" letter-spacing="2.4" text-anchor="middle">MULTI-REPO · OFFLINE-FIRST</text>

  <line x1="0" y1="394" x2="600" y2="394" stroke="#23262C"/>
  <text x="24" y="420" font-family="ui-monospace, monospace" font-size="10.5" fill="#8A8B90" letter-spacing="1.6">NESTJS · NEXT.JS · EXPO · POSTGRESQL</text>
  <text x="576" y="420" font-family="ui-monospace, monospace" font-size="10.5" fill="#6B6E76" letter-spacing="1.6" text-anchor="end">2026</text>
</svg>
