<svg xmlns="http://www.w3.org/2000/svg" width="600" height="160" viewBox="0 0 600 160">
  <defs>
    <linearGradient id="grad3" x1="0%" y1="0%" x2="100%" y2="100%">
      <stop offset="0%" style="stop-color:#0c1a2e"/>
      <stop offset="50%" style="stop-color:#1e3a5f"/>
      <stop offset="100%" style="stop-color:#0a2540"/>
    </linearGradient>
    <linearGradient id="glow3" x1="0%" y1="0%" x2="100%" y2="0%">
      <stop offset="0%" style="stop-color:#3b82f6;stop-opacity:0"/>
      <stop offset="50%" style="stop-color:#60a5fa;stop-opacity:0.4"/>
      <stop offset="100%" style="stop-color:#3b82f6;stop-opacity:0"/>
    </linearGradient>
  </defs>
  <rect width="600" height="160" fill="url(#grad3)"/>
  <rect y="80" width="600" height="2" fill="url(#glow3)"/>
  <!-- Grid lines -->
  <line x1="0" y1="40" x2="600" y2="40" stroke="#3b82f6" stroke-width="0.3" stroke-opacity="0.2"/>
  <line x1="0" y1="80" x2="600" y2="80" stroke="#3b82f6" stroke-width="0.3" stroke-opacity="0.2"/>
  <line x1="0" y1="120" x2="600" y2="120" stroke="#3b82f6" stroke-width="0.3" stroke-opacity="0.2"/>
  <line x1="150" y1="0" x2="150" y2="160" stroke="#3b82f6" stroke-width="0.3" stroke-opacity="0.2"/>
  <line x1="300" y1="0" x2="300" y2="160" stroke="#3b82f6" stroke-width="0.3" stroke-opacity="0.2"/>
  <line x1="450" y1="0" x2="450" y2="160" stroke="#3b82f6" stroke-width="0.3" stroke-opacity="0.2"/>
  <!-- Icon area -->
  <rect x="24" y="28" width="44" height="44" rx="10" fill="#1d4ed8" fill-opacity="0.5"/>
  <text x="46" y="57" font-family="monospace" font-size="18" fill="#93c5fd" text-anchor="middle">PHP</text>
  <!-- Title -->
  <text x="84" y="46" font-family="'Segoe UI', Arial, sans-serif" font-size="16" font-weight="700" fill="#E0F2FE">Soluciones Integrales</text>
  <text x="84" y="64" font-family="'Segoe UI', Arial, sans-serif" font-size="11" fill="#60a5fa" letter-spacing="0.5">INSURANCE MANAGEMENT SYSTEM</text>
  <!-- Tech badges -->
  <rect x="24" y="100" width="36" height="22" rx="11" fill="#1e3a5f"/>
  <text x="42" y="115" font-family="'Segoe UI', Arial, sans-serif" font-size="10" fill="#93c5fd" text-anchor="middle">PHP</text>
  <rect x="68" y="100" width="42" height="22" rx="11" fill="#1e3a5f"/>
  <text x="89" y="115" font-family="'Segoe UI', Arial, sans-serif" font-size="10" fill="#93c5fd" text-anchor="middle">MVC</text>
  <rect x="118" y="100" width="50" height="22" rx="11" fill="#1e3a5f"/>
  <text x="143" y="115" font-family="'Segoe UI', Arial, sans-serif" font-size="10" fill="#93c5fd" text-anchor="middle">MySQL</text>
  <rect x="176" y="100" width="60" height="22" rx="11" fill="#1e3a5f"/>
  <text x="206" y="115" font-family="'Segoe UI', Arial, sans-serif" font-size="10" fill="#93c5fd" text-anchor="middle">HTML/CSS</text>
  <!-- Decorative -->
  <circle cx="520" cy="40" r="50" fill="#3b82f6" fill-opacity="0.06"/>
  <circle cx="560" cy="130" r="35" fill="#60a5fa" fill-opacity="0.06"/>
</svg>
