<svg xmlns="http://www.w3.org/2000/svg" width="600" height="160" viewBox="0 0 600 160">
  <defs>
    <linearGradient id="grad4" x1="0%" y1="0%" x2="100%" y2="100%">
      <stop offset="0%" style="stop-color:#0a3d2e"/>
      <stop offset="50%" style="stop-color:#1a6b46"/>
      <stop offset="100%" style="stop-color:#2d9968"/>
    </linearGradient>
    <linearGradient id="glow4" x1="0%" y1="0%" x2="100%" y2="0%">
      <stop offset="0%" style="stop-color:#10b981;stop-opacity:0"/>
      <stop offset="50%" style="stop-color:#34d399;stop-opacity:0.45"/>
      <stop offset="100%" style="stop-color:#10b981;stop-opacity:0"/>
    </linearGradient>
  </defs>
  <rect width="600" height="160" fill="url(#grad4)"/>
  <rect y="80" width="600" height="2" fill="url(#glow4)"/>
  <!-- Grid lines -->
  <line x1="0" y1="40" x2="600" y2="40" stroke="#34d399" stroke-width="0.3" stroke-opacity="0.2"/>
  <line x1="0" y1="80" x2="600" y2="80" stroke="#34d399" stroke-width="0.3" stroke-opacity="0.2"/>
  <line x1="0" y1="120" x2="600" y2="120" stroke="#34d399" stroke-width="0.3" stroke-opacity="0.2"/>
  <line x1="150" y1="0" x2="150" y2="160" stroke="#34d399" stroke-width="0.3" stroke-opacity="0.2"/>
  <line x1="300" y1="0" x2="300" y2="160" stroke="#34d399" stroke-width="0.3" stroke-opacity="0.2"/>
  <line x1="450" y1="0" x2="450" y2="160" stroke="#34d399" stroke-width="0.3" stroke-opacity="0.2"/>
  <!-- Decorative mountain/path silhouette -->
  <path d="M 380 100 L 430 60 L 470 80 L 510 50 L 560 75 L 600 65 L 600 160 L 380 160 Z" fill="#0a3d2e" fill-opacity="0.5"/>
  <!-- Icon area -->
  <rect x="24" y="28" width="44" height="44" rx="10" fill="#0a3d2e" fill-opacity="0.7"/>
  <path d="M 35 60 L 46 38 L 57 60 Z" fill="#6ee7b7"/>
  <!-- Title -->
  <text x="84" y="46" font-family="'Segoe UI', Arial, sans-serif" font-size="22" font-weight="700" fill="#ECFDF5">Vereda</text>
  <text x="84" y="64" font-family="'Segoe UI', Arial, sans-serif" font-size="11" fill="#6ee7b7" letter-spacing="0.5">EVENT MANAGEMENT SAAS</text>
  <!-- Tech badges -->
  <rect x="24" y="100" width="70" height="22" rx="11" fill="#0a3d2e"/>
  <text x="59" y="115" font-family="'Segoe UI', Arial, sans-serif" font-size="10" fill="#6ee7b7" text-anchor="middle">Next.js 16</text>
  <rect x="102" y="100" width="50" height="22" rx="11" fill="#0a3d2e"/>
  <text x="127" y="115" font-family="'Segoe UI', Arial, sans-serif" font-size="10" fill="#6ee7b7" text-anchor="middle">Neon</text>
  <rect x="160" y="100" width="56" height="22" rx="11" fill="#0a3d2e"/>
  <text x="188" y="115" font-family="'Segoe UI', Arial, sans-serif" font-size="10" fill="#6ee7b7" text-anchor="middle">Vercel</text>
  <rect x="224" y="100" width="70" height="22" rx="11" fill="#0a3d2e"/>
  <text x="259" y="115" font-family="'Segoe UI', Arial, sans-serif" font-size="10" fill="#6ee7b7" text-anchor="middle">TypeScript</text>
  <rect x="302" y="100" width="40" height="22" rx="11" fill="#0a3d2e"/>
  <text x="322" y="115" font-family="'Segoe UI', Arial, sans-serif" font-size="10" fill="#6ee7b7" text-anchor="middle">JWT</text>
  <!-- Decorative dots -->
  <circle cx="540" cy="30" r="2" fill="#34d399" fill-opacity="0.7"/>
  <circle cx="560" cy="40" r="1.5" fill="#6ee7b7" fill-opacity="0.5"/>
  <circle cx="525" cy="45" r="1" fill="#34d399" fill-opacity="0.6"/>
</svg>
